<svg id="Capa_1" data-name="Capa 1" xmlns="http://www.w3.org/2000/svg" viewBox="0 0 99.21 73.05"><rect x="92.79" y="33.79" width="5.69" height="17.07" style="fill:#121225"/><rect x="87.1" y="50.86" width="5.69" height="5.69" style="fill:#121225"/><rect x="87.1" y="28.1" width="5.69" height="5.69" style="fill:#121225"/><rect x="75.72" y="22.41" width="11.38" height="5.69" style="fill:#121225"/><rect x="70.03" y="56.55" width="17.07" height="5.69" style="fill:#121225"/><rect x="70.03" y="16.72" width="5.69" height="5.69" style="fill:#121225"/><rect x="58.65" y="11.03" width="11.38" height="5.69" style="fill:#121225"/><rect x="58.65" y="28.1" width="5.69" height="5.69" style="fill:#121225"/><rect x="58.65" y="16.72" width="11.38" height="5.69" style="fill:#c1c3db"/><rect x="30.2" y="5.34" width="28.45" height="5.69" style="fill:#121225"/><rect x="30.2" y="62.24" width="39.83" height="5.69" style="fill:#121225"/><rect x="30.2" y="28.1" width="5.69" height="5.69" style="fill:#121225"/><rect x="24.51" y="11.03" width="5.69" height="5.69" style="fill:#121225"/><path d="M75.72,28.1V22.41H58.65V11H30.2v5.69H24.51V28.1H13.13V45.17h5.69v5.69H35.89v5.69H64.34V45.17H70v5.69H81.41V45.17H87.1V28.1ZM35.89,33.79H30.2V28.1h5.69ZM53,39.48H41.58V33.79H53Zm11.38-5.69H58.65V28.1h5.69Z" style="fill:#eaeef7"/><rect x="41.58" y="33.79" width="11.38" height="5.69" style="fill:#41417c"/><polygon points="24.51 16.72 24.51 28.1 13.13 28.1 13.13 22.41 18.82 22.41 18.82 16.72 24.51 16.72" style="fill:#121225"/><rect x="13.13" y="56.55" width="17.07" height="5.69" style="fill:#121225"/><rect x="7.44" y="50.86" width="5.69" height="5.69" style="fill:#121225"/><polygon points="92.79 33.79 92.79 50.86 87.1 50.86 87.1 56.55 70.03 56.55 70.03 62.24 30.2 62.24 30.2 56.55 13.13 56.55 13.13 50.86 7.44 50.86 7.44 33.79 13.13 33.79 13.13 45.17 18.82 45.17 18.82 50.86 35.89 50.86 35.89 56.55 64.34 56.55 64.34 45.17 70.03 45.17 70.03 50.86 81.41 50.86 81.41 45.17 87.1 45.17 87.1 33.79 92.79 33.79" style="fill:#c1c3db"/><rect x="7.44" y="28.1" width="5.69" height="5.69" style="fill:#121225"/><rect x="1.75" y="33.79" width="5.69" height="17.07" style="fill:#121225"/></svg>