<svg id="Capa_1" data-name="Capa 1" xmlns="http://www.w3.org/2000/svg" viewBox="0 0 99.21 73.05"><rect x="92.96" y="44.6" width="5.69" height="5.69" style="fill:#121225"/><rect x="92.96" y="38.91" width="5.69" height="5.69" style="fill:#121225"/><rect x="92.96" y="33.22" width="5.69" height="5.69" style="fill:#121225"/><rect x="87.27" y="50.29" width="5.69" height="5.69" style="fill:#121225"/><rect x="87.27" y="44.6" width="5.69" height="5.69" style="fill:#c2c3db"/><rect x="87.27" y="38.91" width="5.69" height="5.69" style="fill:#c2c3db"/><rect x="87.27" y="33.22" width="5.69" height="5.69" style="fill:#c2c3db"/><rect x="87.27" y="27.53" width="5.69" height="5.69" style="fill:#121225"/><rect x="81.58" y="55.98" width="5.69" height="5.69" style="fill:#121225"/><rect x="81.58" y="50.29" width="5.69" height="5.69" style="fill:#c2c3db"/><rect x="81.58" y="44.6" width="5.69" height="5.69" style="fill:#c2c3db"/><rect x="81.58" y="38.91" width="5.69" height="5.69" style="fill:#ebeef7"/><rect x="81.58" y="33.22" width="5.69" height="5.69" style="fill:#ebeef7"/><rect x="81.58" y="27.53" width="5.69" height="5.69" style="fill:#ebeef7"/><rect x="81.58" y="21.84" width="5.69" height="5.69" style="fill:#121225"/><rect x="75.89" y="55.98" width="5.69" height="5.69" style="fill:#121225"/><rect x="75.89" y="50.29" width="5.69" height="5.69" style="fill:#c2c3db"/><rect x="75.89" y="44.6" width="5.69" height="5.69" style="fill:#ebeef7"/><rect x="75.89" y="38.91" width="5.69" height="5.69" style="fill:#ebeef7"/><rect x="75.89" y="33.22" width="5.69" height="5.69" style="fill:#ebeef7"/><rect x="75.89" y="27.53" width="5.69" height="5.69" style="fill:#ebeef7"/><rect x="75.89" y="21.84" width="5.69" height="5.69" style="fill:#121225"/><rect x="70.2" y="55.98" width="5.69" height="5.69" style="fill:#121225"/><rect x="70.2" y="50.29" width="5.69" height="5.69" style="fill:#c2c3db"/><rect x="70.2" y="44.6" width="5.69" height="5.69" style="fill:#ebeef7"/><rect x="70.2" y="38.91" width="5.69" height="5.69" style="fill:#ebeef7"/><rect x="70.2" y="33.22" width="5.69" height="5.69" style="fill:#ebeef7"/><rect x="70.2" y="27.53" width="5.69" height="5.69" style="fill:#ebeef7"/><rect x="70.2" y="21.84" width="5.69" height="5.69" style="fill:#ebeef7"/><rect x="70.2" y="16.15" width="5.69" height="5.69" style="fill:#121225"/><rect x="64.51" y="61.67" width="5.69" height="5.69" style="fill:#121225"/><rect x="64.51" y="55.98" width="5.69" height="5.69" style="fill:#c2c3db"/><rect x="64.51" y="50.29" width="5.69" height="5.69" style="fill:#c2c3db"/><rect x="64.51" y="44.6" width="5.69" height="5.69" style="fill:#c2c3db"/><rect x="64.51" y="38.91" width="5.69" height="5.69" style="fill:#ebeef7"/><rect x="64.51" y="33.22" width="5.69" height="5.69" style="fill:#ebeef7"/><rect x="64.51" y="27.53" width="5.69" height="5.69" style="fill:#ebeef7"/><rect x="64.51" y="21.84" width="5.69" height="5.69" style="fill:#ebeef7"/><rect x="64.51" y="16.15" width="5.69" height="5.69" style="fill:#c2c3db"/><rect x="64.51" y="10.46" width="5.69" height="5.69" style="fill:#121225"/><rect x="58.82" y="61.67" width="5.69" height="5.69" style="fill:#121225"/><rect x="58.82" y="55.98" width="5.69" height="5.69" style="fill:#c2c3db"/><rect x="58.82" y="50.29" width="5.69" height="5.69" style="fill:#ebeef7"/><rect x="58.82" y="44.6" width="5.69" height="5.69" style="fill:#ebeef7"/><rect x="58.82" y="38.91" width="5.69" height="5.69" style="fill:#ebeef7"/><rect x="58.82" y="33.22" width="5.69" height="5.69" style="fill:#ebeef7"/><rect x="58.82" y="27.53" width="5.69" height="5.69" style="fill:#1d1d1b"/><rect x="58.82" y="21.84" width="5.69" height="5.69" style="fill:#ebeef7"/><rect x="58.82" y="16.15" width="5.69" height="5.69" style="fill:#c2c3db"/><rect x="58.82" y="10.46" width="5.69" height="5.69" style="fill:#121225"/><rect x="53.13" y="61.67" width="5.69" height="5.69" style="fill:#121225"/><rect x="53.13" y="55.98" width="5.69" height="5.69" style="fill:#c2c3db"/><rect x="53.13" y="50.29" width="5.69" height="5.69" style="fill:#ebeef7"/><rect x="53.13" y="44.6" width="5.69" height="5.69" style="fill:#ebeef7"/><rect x="53.13" y="38.91" width="5.69" height="5.69" style="fill:#ebeef7"/><rect x="53.13" y="33.22" width="5.69" height="5.69" style="fill:#ebeef7"/><rect x="53.13" y="27.53" width="5.69" height="5.69" style="fill:#ebeef7"/><rect x="53.13" y="21.84" width="5.69" height="5.69" style="fill:#ebeef7"/><rect x="53.13" y="16.15" width="5.69" height="5.69" style="fill:#ebeef7"/><rect x="53.13" y="10.46" width="5.69" height="5.69" style="fill:#ebeef7"/><rect x="53.13" y="4.77" width="5.69" height="5.69" style="fill:#121225"/><rect x="47.44" y="61.67" width="5.69" height="5.69" style="fill:#121225"/><rect x="47.44" y="55.98" width="5.69" height="5.69" style="fill:#c2c3db"/><rect x="47.44" y="50.29" width="5.69" height="5.69" style="fill:#ebeef7"/><rect x="47.44" y="44.6" width="5.69" height="5.69" style="fill:#ebeef7"/><rect x="47.44" y="38.91" width="5.69" height="5.69" style="fill:#ebeef7"/><rect x="47.44" y="33.22" width="5.69" height="5.69" style="fill:#41417c"/><rect x="47.44" y="27.53" width="5.69" height="5.69" style="fill:#ebeef7"/><rect x="47.44" y="21.84" width="5.69" height="5.69" style="fill:#ebeef7"/><rect x="47.44" y="16.15" width="5.69" height="5.69" style="fill:#ebeef7"/><rect x="47.44" y="10.46" width="5.69" height="5.69" style="fill:#ebeef7"/><rect x="47.44" y="4.77" width="5.69" height="5.69" style="fill:#121225"/><rect x="41.75" y="61.67" width="5.69" height="5.69" style="fill:#121225"/><rect x="41.75" y="55.98" width="5.69" height="5.69" style="fill:#c2c3db"/><rect x="41.75" y="50.29" width="5.69" height="5.69" style="fill:#ebeef7"/><rect x="41.75" y="44.6" width="5.69" height="5.69" style="fill:#ebeef7"/><rect x="41.75" y="38.91" width="5.69" height="5.69" style="fill:#ebeef7"/><rect x="41.75" y="33.22" width="5.69" height="5.69" style="fill:#41417c"/><rect x="41.75" y="27.53" width="5.69" height="5.69" style="fill:#ebeef7"/><rect x="41.75" y="21.84" width="5.69" height="5.69" style="fill:#ebeef7"/><rect x="41.75" y="16.15" width="5.69" height="5.69" style="fill:#ebeef7"/><rect x="41.75" y="10.46" width="5.69" height="5.69" style="fill:#ebeef7"/><rect x="41.75" y="4.77" width="5.69" height="5.69" style="fill:#121225"/><rect x="36.06" y="61.67" width="5.69" height="5.69" style="fill:#121225"/><rect x="36.06" y="55.98" width="5.69" height="5.69" style="fill:#c2c3db"/><rect x="36.06" y="50.29" width="5.69" height="5.69" style="fill:#ebeef7"/><rect x="36.06" y="44.6" width="5.69" height="5.69" style="fill:#ebeef7"/><rect x="36.06" y="38.91" width="5.69" height="5.69" style="fill:#ebeef7"/><rect x="36.06" y="33.22" width="5.69" height="5.69" style="fill:#ebeef7"/><rect x="36.06" y="27.53" width="5.69" height="5.69" style="fill:#ebeef7"/><rect x="36.06" y="21.84" width="5.69" height="5.69" style="fill:#ebeef7"/><rect x="36.06" y="16.15" width="5.69" height="5.69" style="fill:#ebeef7"/><rect x="36.06" y="10.46" width="5.69" height="5.69" style="fill:#ebeef7"/><rect x="36.06" y="4.77" width="5.69" height="5.69" style="fill:#121225"/><rect x="30.37" y="61.67" width="5.69" height="5.69" style="fill:#121225"/><rect x="30.37" y="55.98" width="5.69" height="5.69" style="fill:#c2c3db"/><rect x="30.37" y="50.29" width="5.69" height="5.69" style="fill:#c2c3db"/><rect x="30.37" y="44.6" width="5.69" height="5.69" style="fill:#ebeef7"/><rect x="30.37" y="38.91" width="5.69" height="5.69" style="fill:#ebeef7"/><rect x="30.37" y="33.22" width="5.69" height="5.69" style="fill:#ebeef7"/><rect x="30.37" y="27.53" width="5.69" height="5.69" style="fill:#121225"/><rect x="30.37" y="21.84" width="5.69" height="5.69" style="fill:#ebeef7"/><rect x="30.37" y="16.15" width="5.69" height="5.69" style="fill:#ebeef7"/><rect x="30.37" y="10.46" width="5.69" height="5.69" style="fill:#ebeef7"/><rect x="30.37" y="4.77" width="5.69" height="5.69" style="fill:#121225"/><rect x="24.68" y="55.98" width="5.69" height="5.69" style="fill:#121225"/><rect x="24.68" y="50.29" width="5.69" height="5.69" style="fill:#c2c3db"/><rect x="24.68" y="44.6" width="5.69" height="5.69" style="fill:#ebeef7"/><rect x="24.68" y="38.91" width="5.69" height="5.69" style="fill:#ebeef7"/><rect x="24.68" y="33.22" width="5.69" height="5.69" style="fill:#ebeef7"/><rect x="24.68" y="27.53" width="5.69" height="5.69" style="fill:#ebeef7"/><rect x="24.68" y="21.84" width="5.69" height="5.69" style="fill:#ebeef7"/><rect x="24.68" y="16.15" width="5.69" height="5.69" style="fill:#ebeef7"/><rect x="24.68" y="10.46" width="5.69" height="5.69" style="fill:#121225"/><rect x="18.99" y="55.98" width="5.69" height="5.69" style="fill:#121225"/><rect x="18.99" y="50.29" width="5.69" height="5.69" style="fill:#c2c3db"/><rect x="18.99" y="44.6" width="5.69" height="5.69" style="fill:#ebeef7"/><rect x="18.99" y="38.91" width="5.69" height="5.69" style="fill:#ebeef7"/><rect x="18.99" y="33.22" width="5.69" height="5.69" style="fill:#ebeef7"/><rect x="18.99" y="27.53" width="5.69" height="5.69" style="fill:#ebeef7"/><rect x="18.99" y="21.84" width="5.69" height="5.69" style="fill:#121225"/><rect x="18.99" y="16.15" width="5.69" height="5.69" style="fill:#121225"/><rect x="13.3" y="55.98" width="5.69" height="5.69" style="fill:#121225"/><rect x="13.3" y="50.29" width="5.69" height="5.69" style="fill:#c2c3db"/><rect x="13.3" y="44.6" width="5.69" height="5.69" style="fill:#c2c3db"/><rect x="13.3" y="38.91" width="5.69" height="5.69" style="fill:#ebeef7"/><rect x="13.3" y="33.22" width="5.69" height="5.69" style="fill:#ebeef7"/><rect x="13.3" y="27.53" width="5.69" height="5.69" style="fill:#ebeef7"/><rect x="13.3" y="21.84" width="5.69" height="5.69" style="fill:#121225"/><rect x="7.61" y="50.29" width="5.69" height="5.69" style="fill:#121225"/><rect x="7.61" y="44.6" width="5.69" height="5.69" style="fill:#c2c3db"/><rect x="7.61" y="38.91" width="5.69" height="5.69" style="fill:#c2c3db"/><rect x="7.61" y="33.22" width="5.69" height="5.69" style="fill:#c2c3db"/><rect x="7.61" y="27.53" width="5.69" height="5.69" style="fill:#121225"/><rect x="1.92" y="44.6" width="5.69" height="5.69" style="fill:#121225"/><rect x="1.92" y="38.91" width="5.69" height="5.69" style="fill:#121225"/><rect x="1.92" y="33.22" width="5.69" height="5.69" style="fill:#121225"/><text transform="translate(-2.24 -9.57)" style="font-size:12px;fill:#41417c;font-family:FKRasterGroteskCompact-Blended, FK Raster Grotesk Compact">b<tspan x="5.4" y="0" style="letter-spacing:-0.0333251953125em">ef</tspan><tspan x="13.4" y="0">o</tspan><tspan x="18.8" y="0" style="letter-spacing:-0.0333251953125em">r</tspan><tspan x="22.8" y="0">e he</tspan><tspan x="41.5" y="0" style="letter-spacing:-0.08333333333333333em">a</tspan><tspan x="46.9" y="0">ven </tspan></text></svg>