<svg id="Capa_1" data-name="Capa 1" xmlns="http://www.w3.org/2000/svg" viewBox="0 0 99.21 73.05"><polygon points="92.97 50.34 92.92 44.6 98.66 44.55 98.7 50.34 92.97 50.34" style="fill:#121225"/><path d="M98.65,44.6v5.69H93V44.6h5.69m.1-.1H92.86v5.89h5.89V44.5Z" style="fill:#1d1d1b"/><polygon points="92.97 44.65 92.92 38.91 98.66 38.86 98.7 44.65 92.97 44.65" style="fill:#121225"/><path d="M98.65,38.91V44.6H93V38.91h5.69m.1-.1H92.86V44.7h5.89V38.81Z" style="fill:#1d1d1b"/><polygon points="92.97 38.96 92.92 33.22 98.66 33.17 98.7 38.96 92.97 38.96" style="fill:#121225"/><path d="M98.65,33.22v5.69H93V33.22h5.69m.1-.1H92.86V39h5.89V33.12Z" style="fill:#1d1d1b"/><polygon points="87.28 56.03 87.22 50.29 92.97 50.24 93.01 56.03 87.28 56.03" style="fill:#121225"/><path d="M93,50.29V56H87.27V50.29H93m.1-.1H87.17v5.89h5.89V50.19Z" style="fill:#1d1d1b"/><rect x="87.27" y="44.6" width="5.69" height="5.69" style="fill:#c1c3db;stroke:#c1c3db;stroke-miterlimit:10;stroke-width:0.10000000149011612px"/><rect x="87.27" y="38.91" width="5.69" height="5.69" style="fill:#c1c3db;stroke:#c1c3db;stroke-miterlimit:10;stroke-width:0.10000000149011612px"/><rect x="87.27" y="33.22" width="5.69" height="5.69" style="fill:#c1c3db;stroke:#c1c3db;stroke-miterlimit:10;stroke-width:0.10000000149011612px"/><polygon points="87.28 33.27 87.22 27.53 92.97 27.48 93.01 33.27 87.28 33.27" style="fill:#121225"/><path d="M93,27.53v5.69H87.27V27.53H93m.1-.1H87.17v5.89h5.89V27.43Z" style="fill:#1d1d1b"/><polygon points="81.58 61.72 81.53 55.98 87.28 55.93 87.33 61.72 81.58 61.72" style="fill:#121225"/><path d="M87.27,56v5.69H81.58V56h5.69m.1-.1H81.48v5.89h5.89V55.88Z" style="fill:#1d1d1b"/><rect x="81.58" y="50.29" width="5.69" height="5.69" style="fill:#c1c3db;stroke:#c1c3db;stroke-miterlimit:10;stroke-width:0.10000000149011612px"/><rect x="81.58" y="44.6" width="5.69" height="5.69" style="fill:#c1c3db;stroke:#c1c3db;stroke-miterlimit:10;stroke-width:0.10000000149011612px"/><polygon points="81.58 44.65 81.53 38.91 87.28 38.86 87.33 44.65 81.58 44.65" style="fill:#eaeef7"/><path d="M87.27,38.91V44.6H81.58V38.91h5.69m.1-.1H81.48V44.7h5.89V38.81Z" style="fill:#eaeef7"/><polygon points="81.58 38.96 81.53 33.22 87.28 33.17 87.33 38.96 81.58 38.96" style="fill:#eaeef7"/><path d="M87.27,33.22v5.69H81.58V33.22h5.69m.1-.1H81.48V39h5.89V33.12Z" style="fill:#eaeef7"/><polygon points="81.58 33.27 81.53 27.53 87.28 27.48 87.33 33.27 81.58 33.27" style="fill:#eaeef7"/><path d="M87.27,27.53v5.69H81.58V27.53h5.69m.1-.1H81.48v5.89h5.89V27.43Z" style="fill:#eaeef7"/><polygon points="81.58 27.58 81.53 21.84 87.28 21.79 87.33 27.58 81.58 27.58" style="fill:#121225"/><path d="M87.27,21.84v5.69H81.58V21.84h5.69m.1-.1H81.48v5.89h5.89V21.74Z" style="fill:#1d1d1b"/><polygon points="75.89 61.72 75.84 55.98 81.58 55.93 81.64 61.72 75.89 61.72" style="fill:#121225"/><path d="M81.58,56v5.69H75.89V56h5.69m.1-.1H75.79v5.89h5.89V55.88Z" style="fill:#1d1d1b"/><rect x="75.89" y="50.29" width="5.69" height="5.69" style="fill:#c1c3db;stroke:#c1c3db;stroke-miterlimit:10;stroke-width:0.10000000149011612px"/><polygon points="75.89 50.34 75.84 44.6 81.58 44.55 81.64 50.34 75.89 50.34" style="fill:#eaeef7"/><path d="M81.58,44.6v5.69H75.89V44.6h5.69m.1-.1H75.79v5.89h5.89V44.5Z" style="fill:#eaeef7"/><polygon points="75.89 44.65 75.84 38.91 81.58 38.86 81.64 44.65 75.89 44.65" style="fill:#eaeef7"/><path d="M81.58,38.91V44.6H75.89V38.91h5.69m.1-.1H75.79V44.7h5.89V38.81Z" style="fill:#eaeef7"/><polygon points="75.89 38.96 75.84 33.22 81.58 33.17 81.64 38.96 75.89 38.96" style="fill:#eaeef7"/><path d="M81.58,33.22v5.69H75.89V33.22h5.69m.1-.1H75.79V39h5.89V33.12Z" style="fill:#eaeef7"/><polygon points="75.89 33.27 75.84 27.53 81.58 27.48 81.64 33.27 75.89 33.27" style="fill:#eaeef7"/><path d="M81.58,27.53v5.69H75.89V27.53h5.69m.1-.1H75.79v5.89h5.89V27.43Z" style="fill:#eaeef7"/><polygon points="75.89 27.58 75.84 21.84 81.58 21.79 81.64 27.58 75.89 27.58" style="fill:#121225"/><path d="M81.58,21.84v5.69H75.89V21.84h5.69m.1-.1H75.79v5.89h5.89V21.74Z" style="fill:#1d1d1b"/><polygon points="70.2 61.72 70.16 55.98 75.89 55.93 75.94 61.72 70.2 61.72" style="fill:#121225"/><path d="M75.89,56v5.69H70.2V56h5.69m.1-.1H70.1v5.89H76V55.88Z" style="fill:#1d1d1b"/><rect x="70.2" y="50.29" width="5.69" height="5.69" style="fill:#c1c3db;stroke:#c1c3db;stroke-miterlimit:10;stroke-width:0.10000000149011612px"/><polygon points="70.2 50.34 70.16 44.6 75.89 44.55 75.94 50.34 70.2 50.34" style="fill:#eaeef7"/><path d="M75.89,44.6v5.69H70.2V44.6h5.69m.1-.1H70.1v5.89H76V44.5Z" style="fill:#eaeef7"/><polygon points="70.2 44.65 70.16 38.91 75.89 38.86 75.94 44.65 70.2 44.65" style="fill:#eaeef7"/><path d="M75.89,38.91V44.6H70.2V38.91h5.69m.1-.1H70.1V44.7H76V38.81Z" style="fill:#eaeef7"/><polygon points="70.2 38.96 70.16 33.22 75.89 33.17 75.94 38.96 70.2 38.96" style="fill:#eaeef7"/><path d="M75.89,33.22v5.69H70.2V33.22h5.69m.1-.1H70.1V39H76V33.12Z" style="fill:#eaeef7"/><polygon points="70.2 33.27 70.16 27.53 75.89 27.48 75.94 33.27 70.2 33.27" style="fill:#eaeef7"/><path d="M75.89,27.53v5.69H70.2V27.53h5.69m.1-.1H70.1v5.89H76V27.43Z" style="fill:#eaeef7"/><polygon points="70.2 27.58 70.16 21.84 75.89 21.79 75.94 27.58 70.2 27.58" style="fill:#eaeef7"/><path d="M75.89,21.84v5.69H70.2V21.84h5.69m.1-.1H70.1v5.89H76V21.74Z" style="fill:#eaeef7"/><polygon points="70.2 21.89 70.16 16.15 75.89 16.1 75.94 21.89 70.2 21.89" style="fill:#121225"/><path d="M75.89,16.15v5.69H70.2V16.15h5.69m.1-.1H70.1v5.89H76V16.05Z" style="fill:#1d1d1b"/><polygon points="64.52 67.41 64.47 61.67 70.2 61.62 70.25 67.41 64.52 67.41" style="fill:#121225"/><path d="M70.2,61.67v5.69H64.51V61.67H70.2m.1-.1H64.41v5.89H70.3V61.57Z" style="fill:#1d1d1b"/><rect x="64.51" y="55.98" width="5.69" height="5.69" style="fill:#c1c3db;stroke:#c1c3db;stroke-miterlimit:10;stroke-width:0.10000000149011612px"/><rect x="64.51" y="50.29" width="5.69" height="5.69" style="fill:#c1c3db;stroke:#c1c3db;stroke-miterlimit:10;stroke-width:0.10000000149011612px"/><rect x="64.51" y="44.6" width="5.69" height="5.69" style="fill:#c1c3db;stroke:#c1c3db;stroke-miterlimit:10;stroke-width:0.10000000149011612px"/><polygon points="64.52 44.65 64.47 38.91 70.2 38.86 70.25 44.65 64.52 44.65" style="fill:#eaeef7"/><path d="M70.2,38.91V44.6H64.51V38.91H70.2m.1-.1H64.41V44.7H70.3V38.81Z" style="fill:#eaeef7"/><polygon points="64.52 38.96 64.47 33.22 70.2 33.17 70.25 38.96 64.52 38.96" style="fill:#eaeef7"/><path d="M70.2,33.22v5.69H64.51V33.22H70.2m.1-.1H64.41V39H70.3V33.12Z" style="fill:#eaeef7"/><polygon points="64.52 33.27 64.47 27.53 70.2 27.48 70.25 33.27 64.52 33.27" style="fill:#eaeef7"/><path d="M70.2,27.53v5.69H64.51V27.53H70.2m.1-.1H64.41v5.89H70.3V27.43Z" style="fill:#eaeef7"/><polygon points="64.52 27.58 64.47 21.84 70.2 21.79 70.25 27.58 64.52 27.58" style="fill:#eaeef7"/><path d="M70.2,21.84v5.69H64.51V21.84H70.2m.1-.1H64.41v5.89H70.3V21.74Z" style="fill:#eaeef7"/><rect x="64.51" y="16.15" width="5.69" height="5.69" style="fill:#c1c3db;stroke:#c1c3db;stroke-miterlimit:10;stroke-width:0.10000000149011612px"/><polygon points="64.52 16.2 64.47 10.46 70.2 10.41 70.25 16.2 64.52 16.2" style="fill:#121225"/><path d="M70.2,10.46v5.69H64.51V10.46H70.2m.1-.1H64.41v5.89H70.3V10.36Z" style="fill:#1d1d1b"/><polygon points="58.83 67.41 58.77 61.67 64.52 61.62 64.56 67.41 58.83 67.41" style="fill:#121225"/><path d="M64.51,61.67v5.69H58.82V61.67h5.69m.1-.1H58.72v5.89h5.89V61.57Z" style="fill:#1d1d1b"/><rect x="58.82" y="55.98" width="5.69" height="5.69" style="fill:#c1c3db;stroke:#c1c3db;stroke-miterlimit:10;stroke-width:0.10000000149011612px"/><polygon points="58.83 56.03 58.77 50.29 64.52 50.24 64.56 56.03 58.83 56.03" style="fill:#eaeef7"/><path d="M64.51,50.29V56H58.82V50.29h5.69m.1-.1H58.72v5.89h5.89V50.19Z" style="fill:#eaeef7"/><polygon points="58.83 50.34 58.77 44.6 64.52 44.55 64.56 50.34 58.83 50.34" style="fill:#eaeef7"/><path d="M64.51,44.6v5.69H58.82V44.6h5.69m.1-.1H58.72v5.89h5.89V44.5Z" style="fill:#eaeef7"/><polygon points="58.83 44.65 58.77 38.91 64.52 38.86 64.56 44.65 58.83 44.65" style="fill:#eaeef7"/><path d="M64.51,38.91V44.6H58.82V38.91h5.69m.1-.1H58.72V44.7h5.89V38.81Z" style="fill:#eaeef7"/><polygon points="58.83 38.96 58.77 33.22 64.52 33.17 64.56 38.96 58.83 38.96" style="fill:#eaeef7"/><path d="M64.51,33.22v5.69H58.82V33.22h5.69m.1-.1H58.72V39h5.89V33.12Z" style="fill:#eaeef7"/><polygon points="58.83 33.27 58.77 27.53 64.52 27.48 64.56 33.27 58.83 33.27" style="fill:#121225"/><path d="M64.51,27.53v5.69H58.82V27.53h5.69m.1-.1H58.72v5.89h5.89V27.43Z" style="fill:#1d1d1b"/><polygon points="58.83 27.58 58.77 21.84 64.52 21.79 64.56 27.58 58.83 27.58" style="fill:#eaeef7"/><path d="M64.51,21.84v5.69H58.82V21.84h5.69m.1-.1H58.72v5.89h5.89V21.74Z" style="fill:#eaeef7"/><rect x="58.82" y="16.15" width="5.69" height="5.69" style="fill:#c1c3db;stroke:#c1c3db;stroke-miterlimit:10;stroke-width:0.10000000149011612px"/><polygon points="58.83 16.2 58.77 10.46 64.52 10.41 64.56 16.2 58.83 16.2" style="fill:#121225"/><path d="M64.51,10.46v5.69H58.82V10.46h5.69m.1-.1H58.72v5.89h5.89V10.36Z" style="fill:#1d1d1b"/><polygon points="53.13 67.41 53.09 61.67 58.83 61.62 58.88 67.41 53.13 67.41" style="fill:#121225"/><path d="M58.82,61.67v5.69H53.13V61.67h5.69m.1-.1H53v5.89h5.89V61.57Z" style="fill:#1d1d1b"/><rect x="53.13" y="55.98" width="5.69" height="5.69" style="fill:#c1c3db;stroke:#c1c3db;stroke-miterlimit:10;stroke-width:0.10000000149011612px"/><polygon points="53.13 56.03 53.09 50.29 58.83 50.24 58.88 56.03 53.13 56.03" style="fill:#eaeef7"/><path d="M58.82,50.29V56H53.13V50.29h5.69m.1-.1H53v5.89h5.89V50.19Z" style="fill:#eaeef7"/><polygon points="53.13 50.34 53.09 44.6 58.83 44.55 58.88 50.34 53.13 50.34" style="fill:#eaeef7"/><path d="M58.82,44.6v5.69H53.13V44.6h5.69m.1-.1H53v5.89h5.89V44.5Z" style="fill:#eaeef7"/><polygon points="53.13 44.65 53.09 38.91 58.83 38.86 58.88 44.65 53.13 44.65" style="fill:#eaeef7"/><path d="M58.82,38.91V44.6H53.13V38.91h5.69m.1-.1H53V44.7h5.89V38.81Z" style="fill:#eaeef7"/><polygon points="53.13 38.96 53.09 33.22 58.83 33.17 58.88 38.96 53.13 38.96" style="fill:#eaeef7"/><path d="M58.82,33.22v5.69H53.13V33.22h5.69m.1-.1H53V39h5.89V33.12Z" style="fill:#eaeef7"/><polygon points="53.13 33.27 53.09 27.53 58.83 27.48 58.88 33.27 53.13 33.27" style="fill:#eaeef7"/><path d="M58.82,27.53v5.69H53.13V27.53h5.69m.1-.1H53v5.89h5.89V27.43Z" style="fill:#eaeef7"/><polygon points="53.13 27.58 53.09 21.84 58.83 21.79 58.88 27.58 53.13 27.58" style="fill:#eaeef7"/><path d="M58.82,21.84v5.69H53.13V21.84h5.69m.1-.1H53v5.89h5.89V21.74Z" style="fill:#eaeef7"/><polygon points="53.13 21.89 53.09 16.15 58.83 16.1 58.88 21.89 53.13 21.89" style="fill:#eaeef7"/><path d="M58.82,16.15v5.69H53.13V16.15h5.69m.1-.1H53v5.89h5.89V16.05Z" style="fill:#eaeef7"/><polygon points="53.13 16.2 53.09 10.46 58.83 10.41 58.88 16.2 53.13 16.2" style="fill:#eaeef7"/><path d="M58.82,10.46v5.69H53.13V10.46h5.69m.1-.1H53v5.89h5.89V10.36Z" style="fill:#eaeef7"/><polygon points="53.13 10.51 53.09 4.77 58.83 4.72 58.88 10.51 53.13 10.51" style="fill:#121225"/><path d="M58.82,4.77v5.69H53.13V4.77h5.69m.1-.1H53v5.89h5.89V4.67Z" style="fill:#1d1d1b"/><polygon points="47.45 67.41 47.4 61.67 53.13 61.62 53.19 67.41 47.45 67.41" style="fill:#121225"/><path d="M53.13,61.67v5.69H47.44V61.67h5.69m.1-.1H47.34v5.89h5.89V61.57Z" style="fill:#1d1d1b"/><rect x="47.44" y="55.98" width="5.69" height="5.69" style="fill:#c1c3db;stroke:#c1c3db;stroke-miterlimit:10;stroke-width:0.10000000149011612px"/><polygon points="47.45 56.03 47.4 50.29 53.13 50.24 53.19 56.03 47.45 56.03" style="fill:#eaeef7"/><path d="M53.13,50.29V56H47.44V50.29h5.69m.1-.1H47.34v5.89h5.89V50.19Z" style="fill:#eaeef7"/><polygon points="47.45 50.34 47.4 44.6 53.13 44.55 53.19 50.34 47.45 50.34" style="fill:#eaeef7"/><path d="M53.13,44.6v5.69H47.44V44.6h5.69m.1-.1H47.34v5.89h5.89V44.5Z" style="fill:#eaeef7"/><polygon points="47.45 44.65 47.4 38.91 53.13 38.86 53.19 44.65 47.45 44.65" style="fill:#eaeef7"/><path d="M53.13,38.91V44.6H47.44V38.91h5.69m.1-.1H47.34V44.7h5.89V38.81Z" style="fill:#eaeef7"/><polygon points="47.45 38.96 47.4 33.22 53.13 33.17 53.19 38.96 47.45 38.96" style="fill:#41417c"/><path d="M53.13,33.22v5.69H47.44V33.22h5.69m.1-.1H47.34V39h5.89V33.12Z" style="fill:#41417c"/><polygon points="47.45 33.27 47.4 27.53 53.13 27.48 53.19 33.27 47.45 33.27" style="fill:#eaeef7"/><path d="M53.13,27.53v5.69H47.44V27.53h5.69m.1-.1H47.34v5.89h5.89V27.43Z" style="fill:#eaeef7"/><polygon points="47.45 27.58 47.4 21.84 53.13 21.79 53.19 27.58 47.45 27.58" style="fill:#eaeef7"/><path d="M53.13,21.84v5.69H47.44V21.84h5.69m.1-.1H47.34v5.89h5.89V21.74Z" style="fill:#eaeef7"/><polygon points="47.45 21.89 47.4 16.15 53.13 16.1 53.19 21.89 47.45 21.89" style="fill:#eaeef7"/><path d="M53.13,16.15v5.69H47.44V16.15h5.69m.1-.1H47.34v5.89h5.89V16.05Z" style="fill:#eaeef7"/><polygon points="47.45 16.2 47.4 10.46 53.13 10.41 53.19 16.2 47.45 16.2" style="fill:#eaeef7"/><path d="M53.13,10.46v5.69H47.44V10.46h5.69m.1-.1H47.34v5.89h5.89V10.36Z" style="fill:#eaeef7"/><polygon points="47.45 10.51 47.4 4.77 53.13 4.72 53.19 10.51 47.45 10.51" style="fill:#121225"/><path d="M53.13,4.77v5.69H47.44V4.77h5.69m.1-.1H47.34v5.89h5.89V4.67Z" style="fill:#1d1d1b"/><polygon points="41.76 67.41 41.7 61.67 47.45 61.62 47.49 67.41 41.76 67.41" style="fill:#121225"/><path d="M47.44,61.67v5.69H41.75V61.67h5.69m.1-.1H41.65v5.89h5.89V61.57Z" style="fill:#1d1d1b"/><rect x="41.75" y="55.98" width="5.69" height="5.69" style="fill:#c1c3db;stroke:#c1c3db;stroke-miterlimit:10;stroke-width:0.10000000149011612px"/><polygon points="41.76 56.03 41.7 50.29 47.45 50.24 47.49 56.03 41.76 56.03" style="fill:#eaeef7"/><path d="M47.44,50.29V56H41.75V50.29h5.69m.1-.1H41.65v5.89h5.89V50.19Z" style="fill:#eaeef7"/><polygon points="41.76 50.34 41.7 44.6 47.45 44.55 47.49 50.34 41.76 50.34" style="fill:#eaeef7"/><path d="M47.44,44.6v5.69H41.75V44.6h5.69m.1-.1H41.65v5.89h5.89V44.5Z" style="fill:#eaeef7"/><polygon points="41.76 44.65 41.7 38.91 47.45 38.86 47.49 44.65 41.76 44.65" style="fill:#eaeef7"/><path d="M47.44,38.91V44.6H41.75V38.91h5.69m.1-.1H41.65V44.7h5.89V38.81Z" style="fill:#eaeef7"/><polygon points="41.76 38.96 41.7 33.22 47.45 33.17 47.49 38.96 41.76 38.96" style="fill:#41417c"/><path d="M47.44,33.22v5.69H41.75V33.22h5.69m.1-.1H41.65V39h5.89V33.12Z" style="fill:#41417c"/><polygon points="41.76 33.27 41.7 27.53 47.45 27.48 47.49 33.27 41.76 33.27" style="fill:#eaeef7"/><path d="M47.44,27.53v5.69H41.75V27.53h5.69m.1-.1H41.65v5.89h5.89V27.43Z" style="fill:#eaeef7"/><polygon points="41.76 27.58 41.7 21.84 47.45 21.79 47.49 27.58 41.76 27.58" style="fill:#eaeef7"/><path d="M47.44,21.84v5.69H41.75V21.84h5.69m.1-.1H41.65v5.89h5.89V21.74Z" style="fill:#eaeef7"/><polygon points="41.76 21.89 41.7 16.15 47.45 16.1 47.49 21.89 41.76 21.89" style="fill:#eaeef7"/><path d="M47.44,16.15v5.69H41.75V16.15h5.69m.1-.1H41.65v5.89h5.89V16.05Z" style="fill:#eaeef7"/><polygon points="41.76 16.2 41.7 10.46 47.45 10.41 47.49 16.2 41.76 16.2" style="fill:#eaeef7"/><path d="M47.44,10.46v5.69H41.75V10.46h5.69m.1-.1H41.65v5.89h5.89V10.36Z" style="fill:#eaeef7"/><polygon points="41.76 10.51 41.7 4.77 47.45 4.72 47.49 10.51 41.76 10.51" style="fill:#121225"/><path d="M47.44,4.77v5.69H41.75V4.77h5.69m.1-.1H41.65v5.89h5.89V4.67Z" style="fill:#1d1d1b"/><polygon points="36.06 67.41 36.02 61.67 41.76 61.62 41.8 67.41 36.06 67.41" style="fill:#121225"/><path d="M41.75,61.67v5.69H36.06V61.67h5.69m.1-.1H36v5.89h5.89V61.57Z" style="fill:#1d1d1b"/><rect x="36.06" y="55.98" width="5.69" height="5.69" style="fill:#c1c3db;stroke:#c1c3db;stroke-miterlimit:10;stroke-width:0.10000000149011612px"/><polygon points="36.06 56.03 36.02 50.29 41.76 50.24 41.8 56.03 36.06 56.03" style="fill:#eaeef7"/><path d="M41.75,50.29V56H36.06V50.29h5.69m.1-.1H36v5.89h5.89V50.19Z" style="fill:#eaeef7"/><polygon points="36.06 50.34 36.02 44.6 41.76 44.55 41.8 50.34 36.06 50.34" style="fill:#eaeef7"/><path d="M41.75,44.6v5.69H36.06V44.6h5.69m.1-.1H36v5.89h5.89V44.5Z" style="fill:#eaeef7"/><polygon points="36.06 44.65 36.02 38.91 41.76 38.86 41.8 44.65 36.06 44.65" style="fill:#eaeef7"/><path d="M41.75,38.91V44.6H36.06V38.91h5.69m.1-.1H36V44.7h5.89V38.81Z" style="fill:#eaeef7"/><polygon points="36.06 38.96 36.02 33.22 41.76 33.17 41.8 38.96 36.06 38.96" style="fill:#eaeef7"/><path d="M41.75,33.22v5.69H36.06V33.22h5.69m.1-.1H36V39h5.89V33.12Z" style="fill:#eaeef7"/><polygon points="36.06 33.27 36.02 27.53 41.76 27.48 41.8 33.27 36.06 33.27" style="fill:#eaeef7"/><path d="M41.75,27.53v5.69H36.06V27.53h5.69m.1-.1H36v5.89h5.89V27.43Z" style="fill:#eaeef7"/><polygon points="36.06 27.58 36.02 21.84 41.76 21.79 41.8 27.58 36.06 27.58" style="fill:#eaeef7"/><path d="M41.75,21.84v5.69H36.06V21.84h5.69m.1-.1H36v5.89h5.89V21.74Z" style="fill:#eaeef7"/><polygon points="36.06 21.89 36.02 16.15 41.76 16.1 41.8 21.89 36.06 21.89" style="fill:#eaeef7"/><path d="M41.75,16.15v5.69H36.06V16.15h5.69m.1-.1H36v5.89h5.89V16.05Z" style="fill:#eaeef7"/><polygon points="36.06 16.2 36.02 10.46 41.76 10.41 41.8 16.2 36.06 16.2" style="fill:#eaeef7"/><path d="M41.75,10.46v5.69H36.06V10.46h5.69m.1-.1H36v5.89h5.89V10.36Z" style="fill:#eaeef7"/><polygon points="36.06 10.51 36.02 4.77 41.76 4.72 41.8 10.51 36.06 10.51" style="fill:#121225"/><path d="M41.75,4.77v5.69H36.06V4.77h5.69m.1-.1H36v5.89h5.89V4.67Z" style="fill:#1d1d1b"/><polygon points="30.38 67.41 30.32 61.67 36.06 61.62 36.12 67.41 30.38 67.41" style="fill:#121225"/><path d="M36.06,61.67v5.69H30.37V61.67h5.69m.1-.1H30.27v5.89h5.89V61.57Z" style="fill:#1d1d1b"/><rect x="30.37" y="55.98" width="5.69" height="5.69" style="fill:#c1c3db;stroke:#c1c3db;stroke-miterlimit:10;stroke-width:0.10000000149011612px"/><rect x="30.37" y="50.29" width="5.69" height="5.69" style="fill:#c1c3db;stroke:#c1c3db;stroke-miterlimit:10;stroke-width:0.10000000149011612px"/><polygon points="30.38 50.34 30.32 44.6 36.06 44.55 36.12 50.34 30.38 50.34" style="fill:#eaeef7"/><path d="M36.06,44.6v5.69H30.37V44.6h5.69m.1-.1H30.27v5.89h5.89V44.5Z" style="fill:#eaeef7"/><polygon points="30.38 44.65 30.32 38.91 36.06 38.86 36.12 44.65 30.38 44.65" style="fill:#eaeef7"/><path d="M36.06,38.91V44.6H30.37V38.91h5.69m.1-.1H30.27V44.7h5.89V38.81Z" style="fill:#eaeef7"/><polygon points="30.38 38.96 30.32 33.22 36.06 33.17 36.12 38.96 30.38 38.96" style="fill:#eaeef7"/><path d="M36.06,33.22v5.69H30.37V33.22h5.69m.1-.1H30.27V39h5.89V33.12Z" style="fill:#eaeef7"/><polygon points="30.38 33.27 30.32 27.53 36.06 27.48 36.12 33.27 30.38 33.27" style="fill:#121225"/><path d="M36.06,27.53v5.69H30.37V27.53h5.69m.1-.1H30.27v5.89h5.89V27.43Z" style="fill:#1d1d1b"/><polygon points="30.38 27.58 30.32 21.84 36.06 21.79 36.12 27.58 30.38 27.58" style="fill:#eaeef7"/><path d="M36.06,21.84v5.69H30.37V21.84h5.69m.1-.1H30.27v5.89h5.89V21.74Z" style="fill:#eaeef7"/><polygon points="30.38 21.89 30.32 16.15 36.06 16.1 36.12 21.89 30.38 21.89" style="fill:#eaeef7"/><path d="M36.06,16.15v5.69H30.37V16.15h5.69m.1-.1H30.27v5.89h5.89V16.05Z" style="fill:#eaeef7"/><polygon points="30.38 16.2 30.32 10.46 36.06 10.41 36.12 16.2 30.38 16.2" style="fill:#eaeef7"/><path d="M36.06,10.46v5.69H30.37V10.46h5.69m.1-.1H30.27v5.89h5.89V10.36Z" style="fill:#eaeef7"/><polygon points="30.38 10.51 30.32 4.77 36.06 4.72 36.12 10.51 30.38 10.51" style="fill:#121225"/><path d="M36.06,4.77v5.69H30.37V4.77h5.69m.1-.1H30.27v5.89h5.89V4.67Z" style="fill:#1d1d1b"/><polygon points="24.68 61.72 24.64 55.98 30.38 55.93 30.43 61.72 24.68 61.72" style="fill:#121225"/><path d="M30.37,56v5.69H24.68V56h5.69m.1-.1H24.58v5.89h5.89V55.88Z" style="fill:#1d1d1b"/><rect x="24.68" y="50.29" width="5.69" height="5.69" style="fill:#c1c3db;stroke:#c1c3db;stroke-miterlimit:10;stroke-width:0.10000000149011612px"/><polygon points="24.68 50.34 24.64 44.6 30.38 44.55 30.43 50.34 24.68 50.34" style="fill:#eaeef7"/><path d="M30.37,44.6v5.69H24.68V44.6h5.69m.1-.1H24.58v5.89h5.89V44.5Z" style="fill:#eaeef7"/><polygon points="24.68 44.65 24.64 38.91 30.38 38.86 30.43 44.65 24.68 44.65" style="fill:#eaeef7"/><path d="M30.37,38.91V44.6H24.68V38.91h5.69m.1-.1H24.58V44.7h5.89V38.81Z" style="fill:#eaeef7"/><polygon points="24.68 38.96 24.64 33.22 30.38 33.17 30.43 38.96 24.68 38.96" style="fill:#eaeef7"/><path d="M30.37,33.22v5.69H24.68V33.22h5.69m.1-.1H24.58V39h5.89V33.12Z" style="fill:#eaeef7"/><polygon points="24.68 33.27 24.64 27.53 30.38 27.48 30.43 33.27 24.68 33.27" style="fill:#eaeef7"/><path d="M30.37,27.53v5.69H24.68V27.53h5.69m.1-.1H24.58v5.89h5.89V27.43Z" style="fill:#eaeef7"/><polygon points="24.68 27.58 24.64 21.84 30.38 21.79 30.43 27.58 24.68 27.58" style="fill:#eaeef7"/><path d="M30.37,21.84v5.69H24.68V21.84h5.69m.1-.1H24.58v5.89h5.89V21.74Z" style="fill:#eaeef7"/><polygon points="24.68 21.89 24.64 16.15 30.38 16.1 30.43 21.89 24.68 21.89" style="fill:#eaeef7"/><path d="M30.37,16.15v5.69H24.68V16.15h5.69m.1-.1H24.58v5.89h5.89V16.05Z" style="fill:#eaeef7"/><polygon points="24.68 16.2 24.64 10.46 30.38 10.41 30.43 16.2 24.68 16.2" style="fill:#121225"/><path d="M30.37,10.46v5.69H24.68V10.46h5.69m.1-.1H24.58v5.89h5.89V10.36Z" style="fill:#1d1d1b"/><polygon points="19 61.72 18.95 55.98 24.68 55.93 24.73 61.72 19 61.72" style="fill:#121225"/><path d="M24.68,56v5.69H19V56h5.69m.1-.1H18.89v5.89h5.89V55.88Z" style="fill:#1d1d1b"/><rect x="18.99" y="50.29" width="5.69" height="5.69" style="fill:#c1c3db;stroke:#c1c3db;stroke-miterlimit:10;stroke-width:0.10000000149011612px"/><polygon points="19 50.34 18.95 44.6 24.68 44.55 24.73 50.34 19 50.34" style="fill:#eaeef7"/><path d="M24.68,44.6v5.69H19V44.6h5.69m.1-.1H18.89v5.89h5.89V44.5Z" style="fill:#eaeef7"/><polygon points="19 44.65 18.95 38.91 24.68 38.86 24.73 44.65 19 44.65" style="fill:#eaeef7"/><path d="M24.68,38.91V44.6H19V38.91h5.69m.1-.1H18.89V44.7h5.89V38.81Z" style="fill:#eaeef7"/><polygon points="19 38.96 18.95 33.22 24.68 33.17 24.73 38.96 19 38.96" style="fill:#eaeef7"/><path d="M24.68,33.22v5.69H19V33.22h5.69m.1-.1H18.89V39h5.89V33.12Z" style="fill:#eaeef7"/><polygon points="19 33.27 18.95 27.53 24.68 27.48 24.73 33.27 19 33.27" style="fill:#eaeef7"/><path d="M24.68,27.53v5.69H19V27.53h5.69m.1-.1H18.89v5.89h5.89V27.43Z" style="fill:#eaeef7"/><polygon points="19 27.58 18.95 21.84 24.68 21.79 24.73 27.58 19 27.58" style="fill:#121225"/><path d="M24.68,21.84v5.69H19V21.84h5.69m.1-.1H18.89v5.89h5.89V21.74Z" style="fill:#1d1d1b"/><polygon points="19 21.89 18.95 16.15 24.68 16.1 24.73 21.89 19 21.89" style="fill:#121225"/><path d="M24.68,16.15v5.69H19V16.15h5.69m.1-.1H18.89v5.89h5.89V16.05Z" style="fill:#1d1d1b"/><polygon points="13.3 61.72 13.26 55.98 19 55.93 19.05 61.72 13.3 61.72" style="fill:#121225"/><path d="M19,56v5.69H13.3V56H19m.1-.1H13.2v5.89h5.89V55.88Z" style="fill:#1d1d1b"/><rect x="13.3" y="50.29" width="5.69" height="5.69" style="fill:#c1c3db;stroke:#c1c3db;stroke-miterlimit:10;stroke-width:0.10000000149011612px"/><rect x="13.3" y="44.6" width="5.69" height="5.69" style="fill:#c1c3db;stroke:#c1c3db;stroke-miterlimit:10;stroke-width:0.10000000149011612px"/><polygon points="13.3 44.65 13.26 38.91 19 38.86 19.05 44.65 13.3 44.65" style="fill:#eaeef7"/><path d="M19,38.91V44.6H13.3V38.91H19m.1-.1H13.2V44.7h5.89V38.81Z" style="fill:#eaeef7"/><polygon points="13.3 38.96 13.26 33.22 19 33.17 19.05 38.96 13.3 38.96" style="fill:#eaeef7"/><path d="M19,33.22v5.69H13.3V33.22H19m.1-.1H13.2V39h5.89V33.12Z" style="fill:#eaeef7"/><polygon points="13.3 33.27 13.26 27.53 19 27.48 19.05 33.27 13.3 33.27" style="fill:#eaeef7"/><path d="M19,27.53v5.69H13.3V27.53H19m.1-.1H13.2v5.89h5.89V27.43Z" style="fill:#eaeef7"/><polygon points="13.3 27.58 13.26 21.84 19 21.79 19.05 27.58 13.3 27.58" style="fill:#121225"/><path d="M19,21.84v5.69H13.3V21.84H19m.1-.1H13.2v5.89h5.89V21.74Z" style="fill:#1d1d1b"/><polygon points="7.62 56.03 7.57 50.29 13.3 50.24 13.36 56.03 7.62 56.03" style="fill:#121225"/><path d="M13.3,50.29V56H7.61V50.29H13.3m.1-.1H7.51v5.89H13.4V50.19Z" style="fill:#1d1d1b"/><rect x="7.61" y="44.6" width="5.69" height="5.69" style="fill:#c1c3db;stroke:#c1c3db;stroke-miterlimit:10;stroke-width:0.10000000149011612px"/><rect x="7.61" y="38.91" width="5.69" height="5.69" style="fill:#c1c3db;stroke:#c1c3db;stroke-miterlimit:10;stroke-width:0.10000000149011612px"/><rect x="7.61" y="33.22" width="5.69" height="5.69" style="fill:#c1c3db;stroke:#c1c3db;stroke-miterlimit:10;stroke-width:0.10000000149011612px"/><polygon points="7.62 33.27 7.57 27.53 13.3 27.48 13.36 33.27 7.62 33.27" style="fill:#121225"/><path d="M13.3,27.53v5.69H7.61V27.53H13.3m.1-.1H7.51v5.89H13.4V27.43Z" style="fill:#1d1d1b"/><polygon points="1.93 50.34 1.88 44.6 7.62 44.55 7.67 50.34 1.93 50.34" style="fill:#121225"/><path d="M7.61,44.6v5.69H1.92V44.6H7.61m.1-.1H1.82v5.89H7.71V44.5Z" style="fill:#1d1d1b"/><polygon points="1.93 44.65 1.88 38.91 7.62 38.86 7.67 44.65 1.93 44.65" style="fill:#121225"/><path d="M7.61,38.91V44.6H1.92V38.91H7.61m.1-.1H1.82V44.7H7.71V38.81Z" style="fill:#1d1d1b"/><polygon points="1.93 38.96 1.88 33.22 7.62 33.17 7.67 38.96 1.93 38.96" style="fill:#121225"/><path d="M7.61,33.22v5.69H1.92V33.22H7.61m.1-.1H1.82V39H7.71V33.12Z" style="fill:#1d1d1b"/></svg>